<svg width="36" height="27" viewBox="0 0 36 27" fill="none" xmlns="http://www.w3.org/2000/svg">
<path d="M17.828 15.2C13.6307 15.2 10.228 11.7974 10.228 7.60001C10.228 3.40265 13.6307 0 17.828 0C22.0253 0 25.428 3.40265 25.428 7.60001C25.428 11.7974 22.0253 15.2 17.828 15.2Z" fill="white"/>
<path d="M3.10489 10.1963C0.902485 10.5846 -0.607148 12.7121 0.238286 14.7826C1.41861 17.6732 3.30167 20.2485 5.74292 22.261C9.23373 25.1385 13.6366 26.6761 18.1599 26.5972C22.6831 26.5183 27.0298 24.8279 30.4181 21.8302C32.7876 19.7339 34.5796 17.0943 35.6585 14.1644C36.4311 12.0656 34.848 9.99209 32.6334 9.68087C30.4189 9.36965 28.4305 10.9816 27.3366 12.9323C26.7437 13.9896 25.9739 14.9488 25.0518 15.7647C23.1077 17.4847 20.6138 18.4544 18.0187 18.4998C15.4234 18.545 12.8972 17.6629 10.8943 16.0118C9.9442 15.2286 9.14151 14.2969 8.51201 13.2609C7.35075 11.3496 5.3073 9.80792 3.10489 10.1963Z" fill="white"/>
</svg>
